<?xml version="1.0" encoding="utf-8"?>
<!-- Generator: Adobe Illustrator 26.3.1, SVG Export Plug-In . SVG Version: 6.00 Build 0)  -->
<svg version="1.1" id="Layer_1" class="svg" xmlns="http://www.w3.org/2000/svg" xmlns:xlink="http://www.w3.org/1999/xlink" x="0px" y="0px"
	 viewBox="0 0 100 131" style="enable-background:new 0 0 100 131;" xml:space="preserve">
<style type="text/css">
	.st0{fill-rule:evenodd;clip-rule:evenodd;fill:#FFCC33;}
	.st1{filter:url(#Adobe_OpacityMaskFilter);}
	.st2{fill-rule:evenodd;clip-rule:evenodd;fill:#FFFFFF;}
	.st3{mask:url(#mask-2_00000172425276216861350740000009536341389288661929_);fill-rule:evenodd;clip-rule:evenodd;fill:#FFCC33;}
</style>
<g>
	<g>
		<path id="Fill-1" class="st0" d="M78.1,90.5c1.7,4,3.4,7.9,5,11.9c1.9,4.5,3.8,9,5.7,13.5c0.7,1.5,0.8,3-0.4,4.3
			c-1.1,1.3-2.6,1.3-4.2,0.8c-3.7-1.3-7.4-2.6-11.1-3.9c-0.9-0.3-1.3-0.1-1.7,0.7c-1.7,3.7-3.4,7.4-5.2,11.1c-0.7,1.5-1.9,2-3.5,1.9
			c-1.4-0.1-2.3-0.9-2.8-2.1c-2.7-6.5-5.5-13.1-8.2-19.6c-0.1-0.3-0.3-0.6-0.5-1.1c-0.9,2.2-1.8,4.3-2.7,6.4c-2,4.7-4,9.5-5.9,14.2
			c-0.6,1.4-1.6,2.2-3.2,2.2c-1.6,0-2.6-0.8-3.2-2.2c-1.7-3.7-3.5-7.4-5.2-11.1c-0.3-0.7-0.6-0.8-1.4-0.5c-3.9,1.4-7.8,2.7-11.8,4
			c-1.4,0.5-2.7,0.2-3.6-0.8c-1-1.1-1.2-2.4-0.6-3.8c3.2-7.6,6.4-15.2,9.6-22.9c0.2-0.4,0.4-0.7,0.6-1.1c0.5,0.2,0.9,0.5,1.3,0.9
			c-1.6,3.8-3.2,7.7-4.7,11.5c-1.6,3.9-3.3,7.9-4.9,11.8c-0.4,0.9-0.5,1.7,0.2,2.5c0.7,0.7,1.4,0.5,2.2,0.2
			c4.1-1.4,8.2-2.8,12.3-4.3c1-0.4,1.5-0.2,2,0.9c1.8,4,3.7,7.9,5.6,11.9c0.4,0.8,0.9,1.4,1.8,1.4c0.9,0,1.4-0.6,1.7-1.3
			c2.9-7,5.8-14,8.8-20.9c0.5-1.1,0.4-1.9-0.3-2.8c-0.3,0.2-0.3,0.4-0.4,0.7c-2.9,6.9-5.8,13.7-8.7,20.6c-0.2,0.5-0.3,1.1-0.9,1.1
			c-0.7,0-0.8-0.7-1.1-1.1c-2-3.9-4-7.9-5.9-11.8c-0.3-0.7-0.7-0.9-1.4-0.6c-2.1,0.8-4.3,1.4-6.5,2.1c-2.2,0.7-4.4,1.4-6.6,2.1
			c-0.4,0.1-0.7,0.2-1-0.1c-0.3-0.3-0.2-0.6,0-0.9c0.1-0.3,0.2-0.6,0.3-0.8c3-7.1,5.9-14.2,8.9-21.2c2.5,0.7,5,0.6,7.5,0.4
			c3.3-0.2,6.1,0.9,8.8,2.7c2.2,1.5,4.4,2.9,7.2,2.9c3.8,9.1,7.7,18.3,11.5,27.4c0.4,0.9,0.8,1.6,1.8,1.7c1,0,1.5-0.7,1.9-1.6
			c1.8-3.8,3.5-7.5,5.3-11.3c0.8-1.7,0.4-1.9,2.7-1.1c4,1.4,7.9,2.7,11.9,4.1c0.9,0.3,1.6,0.4,2.3-0.4c0.7-0.7,0.5-1.5,0.1-2.3
			c-3.5-8.3-6.9-16.5-10.4-24.8C77.3,91.4,77.6,90.9,78.1,90.5"/>
		<defs>
			<filter id="Adobe_OpacityMaskFilter" filterUnits="userSpaceOnUse" x="0.1" y="0.2" width="99.8" height="99.9">
				<feColorMatrix  type="matrix" values="1 0 0 0 0  0 1 0 0 0  0 0 1 0 0  0 0 0 1 0"/>
			</filter>
		</defs>
		
			<mask maskUnits="userSpaceOnUse" x="0.1" y="0.2" width="99.8" height="99.9" id="mask-2_00000172425276216861350740000009536341389288661929_">
			<g class="st1">
				<polygon id="path-1_00000065791089575324963250000017321420508509944235_" class="st2" points="0.1,0.2 99.9,0.2 99.9,100.1 
					0.1,100.1 				"/>
			</g>
		</mask>
		<path id="Fill-3" class="st3" d="M24.8,93.4c-0.3-0.5-0.8-0.7-1.3-0.9c-2.1-2.5-3.4-5.5-5.1-8.2c-1.1-1.7-2.7-2.8-4.4-3.7
			c-1.7-0.9-3.4-1.7-4.9-2.9C6.9,76,5.7,73.8,5.6,71c0-1.3-0.1-2.7,0-4C6,63.5,5,60.4,3,57.6c-0.8-1.1-1.4-2.3-2-3.4
			c-1.3-2.7-1.3-5.4,0-8.1c0.7-1.5,1.7-2.9,2.6-4.4c1.4-2.2,2.2-4.5,2-7.1c-0.1-1.6,0-3.2,0-4.7c0-3.6,1.5-6.2,4.6-8
			c1.2-0.7,2.3-1.4,3.6-2c2.7-1.3,4.6-3.3,6-6c0.9-1.8,1.9-3.7,3.2-5.3c1.7-1.9,3.8-2.8,6.3-2.9c1.3,0,2.6-0.1,3.9,0
			c3.6,0.4,6.7-0.7,9.6-2.7c1-0.7,2-1.2,3.1-1.8c2.8-1.5,5.6-1.4,8.5,0c1.5,0.7,2.8,1.6,4.2,2.5c2.2,1.4,4.6,2.1,7.2,2
			c1.6-0.1,3.2,0,4.7,0c3.6,0,6.2,1.6,8,4.6c0.7,1.2,1.5,2.5,2.1,3.8c1.2,2.5,3.1,4.3,5.6,5.6c1.5,0.8,3.1,1.6,4.5,2.6
			c2.6,1.8,3.8,4.2,3.9,7.3c0,1.2,0.1,2.4,0,3.6C94,36.8,95,39.9,97,42.8c0.6,0.9,1.2,1.9,1.7,2.8c1.7,3.2,1.6,6.4-0.3,9.5
			c-0.9,1.6-1.8,3.1-2.8,4.6c-0.9,1.6-1.3,3.2-1.3,5c0,1.8,0,3.7,0,5.5c0.1,3.6-1.5,6.2-4.5,8c-1.3,0.8-2.6,1.5-3.9,2.2
			c-2.2,1.1-4,2.6-5.1,4.9c-0.9,1.7-1.8,3.4-2.7,5c-0.5,0.4-0.8,0.9-1.2,1.4c-0.5,0.3-0.8,0.6-1.2,1.1c-2,1.3-4.2,1.7-6.5,1.6
			c-1.7-0.1-3.3,0-5,0c-1.1,0-2.3,0.2-3.3,0.7c-3.3,1.4-6,3.9-9.5,4.9c-0.6-0.2-1.1,0-1.7,0c-2.8-0.1-5-1.5-7.2-2.9
			c-2.7-1.8-5.5-2.9-8.8-2.7c-2.5,0.2-5,0.2-7.5-0.4C25.8,93.8,25.4,93.5,24.8,93.4"/>
		<path id="Fill-12" class="st0" d="M75.8,93c2.7,6.5,5.4,13,8.2,19.5c0.5,1.1,0.9,2.2,1.4,3.4c0.2,0.4,0.4,0.8,0.1,1.2
			c-0.4,0.4-0.8,0.2-1.2,0c-4.3-1.4-8.5-2.7-12.8-4.1c-0.8-0.3-1.2-0.1-1.6,0.7c-1.9,4-3.9,7.9-5.9,11.8c-0.2,0.4-0.3,0.9-1,0.9
			c-0.7,0-0.7-0.5-0.9-1c-3.4-8.2-6.8-16.3-10.3-24.5c-0.1-0.3-0.2-0.6-0.2-0.8c3.5-1,6.2-3.5,9.5-4.9c1.1-0.5,2.2-0.7,3.3-0.7
			c1.7,0,3.3,0,5,0C71.6,94.6,73.8,94.3,75.8,93"/>
	</g>
	<path class="st2" d="M80.2,57.6c0,11.6-13.5,21-30.2,21s-30.2-9.4-30.2-21H80.2z"/>
	<circle class="st2" cx="32.8" cy="38.2" r="8"/>
	<circle class="st2" cx="67.2" cy="38.2" r="8"/>
</g>
</svg>
